<?xml version="1.0" encoding="UTF-8" standalone="no"?>
<svg width="190px" height="140px" viewBox="0 0 190 140" version="1.1" xmlns="http://www.w3.org/2000/svg" xmlns:xlink="http://www.w3.org/1999/xlink" xmlns:sketch="http://www.bohemiancoding.com/sketch/ns">
    <!-- Generator: Sketch 3.4.2 (15857) - http://www.bohemiancoding.com/sketch -->
    <title>web-lit-logo</title>
    <desc>Created with Sketch.</desc>
    <defs></defs>
    <g id="Page-1" stroke="none" stroke-width="1" fill="none" fill-rule="evenodd" sketch:type="MSPage">
        <g id="web-lit-logo" sketch:type="MSArtboardGroup" fill="#FFFFFF">
            <g id="Page-1" sketch:type="MSLayerGroup">
                <path d="M133.445173,20.5632887 C133.126407,21.3853998 132.668671,22.1431854 132.085314,22.8131118 L131.761051,23.1857289 L132.423708,24.7232649 L131.09918,25.7022674 L129.813123,24.6110875 L129.364809,24.8056329 C128.551406,25.1586386 127.701101,25.3673042 126.837449,25.4261385 L126.344382,25.4598701 L125.714701,27.0421202 L124.083969,26.7997229 L123.945784,25.0841152 L123.491974,24.90369 C122.687993,24.5852004 121.952318,24.1388443 121.303794,23.5756041 L120.931638,23.2524077 L119.329171,23.9419456 L118.349318,22.6193508 L119.486984,21.281067 L119.29227,20.8331419 C118.949949,20.045547 118.744243,19.2195136 118.681432,18.3777911 L118.64453,17.8882899 L117.008302,17.2387593 L117.25248,15.6110108 L119.008835,15.4674551 L119.187846,15.0109011 C119.49562,14.2225217 119.933728,13.4921921 120.48882,12.8426616 L120.806016,12.4708289 L120.109599,10.8595539 L121.435697,9.87976695 L122.764151,11.0086008 L123.215606,10.8085642 C124.005455,10.4586963 124.840057,10.2468929 125.696643,10.1786451 L126.184214,10.1394223 L126.819391,8.53912971 L128.450123,8.78309588 L128.589093,10.4790922 L129.049969,10.6555951 C129.860231,10.9654556 130.610824,11.4141651 131.282902,11.9883877 L131.654273,12.3068773 L133.204921,11.6393043 L134.186344,12.9626835 L133.101283,14.2389953 L133.302278,14.6900581 C133.665012,15.5019712 133.880925,16.3593829 133.945306,17.2379749 L133.981423,17.7282606 L135.52736,18.3417061 L135.283967,19.9702391 L133.6234,20.1043813 L133.445173,20.5632887 Z M135.909722,21.4936548 L136.619487,21.6513307 L137.264871,17.3430921 L135.461408,16.6276672 C135.368762,15.9051822 135.190536,15.1968174 134.928299,14.5135553 L136.190017,13.0285779 L133.726253,9.70640193 L131.918864,10.4845834 C131.344928,10.0437185 130.727809,9.67502364 130.074574,9.38242113 L129.913621,7.41578709 L125.818339,6.80312607 L125.079524,8.66699622 C124.382321,8.76034662 123.700036,8.93371165 123.041305,9.18473793 L121.504004,7.87940126 L118.173447,10.3386744 L118.982925,12.2096046 C118.560521,12.7602936 118.204068,13.3541276 117.918277,13.9824778 L115.884769,14.1487827 L115.270006,18.2373733 L117.166115,18.9896677 C117.255621,19.6737143 117.422855,20.3459941 117.666248,20.9986624 L116.34643,22.5518875 L118.807054,25.874848 L120.65998,25.077055 C121.215073,25.5085065 121.816489,25.8740635 122.457947,26.1682349 L122.619686,28.1678162 L126.714967,28.7773394 L127.443576,26.9432786 C128.153341,26.8554194 128.851329,26.6836233 129.531259,26.4302436 L131.031658,27.7034175 L134.359074,25.2449289 L133.588068,23.4571511 C134.037953,22.8797906 134.416389,22.2545783 134.716312,21.5901431 L135.909722,21.4936548 Z" id="Fill-1" sketch:type="MSShapeGroup"></path>
                <path d="M131.273716,18.4577273 C131.072721,19.8062091 130.356674,20.9962306 129.257481,21.8081437 C128.159072,22.6192724 126.810205,22.95502 125.461337,22.7510612 C124.109329,22.5502402 122.916704,21.8348153 122.104085,20.7373597 C121.293038,19.6406886 120.956998,18.2945602 121.161134,16.9452939 C121.36213,15.5952432 122.078176,14.4044373 123.175799,13.5925241 C124.065361,12.9335801 125.119802,12.588419 126.207218,12.588419 C126.461603,12.588419 126.717558,12.607246 126.973513,12.6456844 C129.762325,13.0669378 131.69141,15.6736889 131.273716,18.4577273 M127.206699,11.0940282 L127.205914,11.0948126 C125.437783,10.8296661 123.675932,11.2697466 122.241485,12.3311171 C120.806252,13.3924876 119.871152,14.9488505 119.608131,16.7123102 C119.341969,18.4757698 119.780076,20.2368761 120.841583,21.6708637 C121.903875,23.1048514 123.462375,24.0399243 125.228936,24.3027174 C125.564975,24.3537071 125.9018,24.3780253 126.236268,24.3780253 C127.653443,24.3780253 129.029006,23.9277469 130.19101,23.0695508 C131.627813,22.0081803 132.564483,20.4526018 132.82672,18.6891421 C133.372391,15.0516144 130.851312,11.6439326 127.206699,11.0940282" id="Fill-3" sketch:type="MSShapeGroup"></path>
                <path d="M147.342043,14.4282063 C147.316134,14.7780742 147.233694,15.1232353 147.096295,15.4542763 L146.825422,16.1053757 L146.30409,16.57605 C146.051276,16.8035425 145.770196,16.9816143 145.467133,17.106343 L144.847659,17.3597226 L144.191283,17.3150086 C143.867806,17.2922593 143.54747,17.2098913 143.238125,17.0694735 L142.628858,16.7925601 L142.182899,16.2630516 C141.954424,15.9908449 141.774627,15.6817688 141.64979,15.3444523 L141.399331,14.6698191 L141.44958,13.9559631 C141.475489,13.5888372 141.56107,13.2342626 141.70475,12.9000838 L141.9874,12.2458466 L142.49931,11.7916459 C142.761546,11.5594466 143.049692,11.3798059 143.356681,11.258215 L143.974585,11.0142489 L144.628605,11.0691609 C144.953652,11.0966169 145.270848,11.1805538 145.570771,11.3186182 L146.176113,11.5971005 L146.626782,12.1430827 C146.845051,12.4074447 147.017781,12.7055384 147.138692,13.0287348 L147.395432,13.7127814 L147.342043,14.4282063 Z M149.851345,14.1552152 L149.622085,12.5627672 L148.609256,12.4780459 C148.423179,11.9830534 148.160942,11.5351284 147.838251,11.1444687 L148.241026,10.1780176 L146.993442,9.21705756 L146.227932,9.89325961 C145.769411,9.6830251 145.275559,9.54888293 144.760508,9.50573779 L144.390708,8.5447778 L142.857333,8.78325277 L142.778819,9.79990922 C142.286537,9.99445459 141.843719,10.2752902 141.456646,10.6188825 L140.560018,10.2180249 L139.636695,11.5123791 L140.263236,12.2795782 C140.052819,12.7667261 139.921701,13.2962347 139.883229,13.8461391 L138.988171,14.2156184 L139.217432,15.8112042 L140.177656,15.88965 C140.368444,16.4050383 140.643243,16.8702214 140.980852,17.2726479 L140.597705,18.1967384 L141.844504,19.155345 L142.588816,18.4979699 C143.055973,18.7097734 143.559247,18.8439155 144.083719,18.8800006 L144.446453,19.8284092 L145.980613,19.5899343 L146.062268,18.5575887 C146.541987,18.3614744 146.976954,18.0822077 147.356176,17.7401843 L148.279498,18.1535933 L149.202821,16.8568856 L148.546445,16.0551704 C148.74273,15.5821428 148.869137,15.0730301 148.908394,14.544306 L149.851345,14.1552152 Z" id="Fill-5" sketch:type="MSShapeGroup"></path>
                <path d="M149.851973,14.1550583 L149.851973,14.1550583 L149.851973,14.1581962 L149.851973,14.1550583 Z" id="Fill-7" sketch:type="MSShapeGroup"></path>
                <path d="M48.2123615,45.4352866 C47.6714012,46.5531381 46.0194701,47.3925072 44.1249313,47.3925072 L22.2651099,47.3925072 C20.3705711,47.3925072 18.71864,46.5531381 18.1776797,45.4352866 L48.2123615,45.4352866 Z M22.4527579,41.567913 L43.935713,41.567913 L46.8948994,43.8663724 L19.4935716,43.8663724 L22.4527579,41.567913 Z M22.9756601,28.0399496 C22.9756601,27.5575085 23.3682292,27.1652799 23.8510893,27.1652799 L42.5373816,27.1652799 C43.0202417,27.1652799 43.4128109,27.5575085 43.4128109,28.0399496 L43.4128109,39.9989987 L22.9756601,39.9989987 L22.9756601,28.0399496 Z M16.4221104,44.677501 C16.4409537,47.0818622 18.9997195,48.9614215 22.2651099,48.9614215 L44.1249313,48.9614215 C47.4028839,48.9614215 49.9702862,47.0685264 49.9702862,44.6508295 L49.9671457,44.6508295 C49.9679308,44.4139234 49.861152,44.183293 49.6664377,44.0311084 L44.9830875,40.3943651 L44.9830875,28.0399496 C44.9830875,26.6922523 43.8862493,25.5963657 42.5373816,25.5963657 L23.8510893,25.5963657 C22.5022216,25.5963657 21.4053834,26.6922523 21.4053834,28.0399496 L21.4053834,40.3943651 L16.7228184,44.0311084 C16.5273189,44.183293 16.4213253,44.4139234 16.4213253,44.6508295 L16.419755,44.6508295 C16.419755,44.6531829 16.4205401,44.6547518 16.4205401,44.6563207 C16.4205401,44.6641653 16.4213253,44.6704409 16.4221104,44.677501 L16.4221104,44.677501 Z" id="Fill-9" sketch:type="MSShapeGroup"></path>
                <path d="M28.1074027,34.4131148 L30.0199997,31.1332995 C30.0788851,31.032889 30.0796702,30.9073758 30.0239254,30.8046119 L30.0231403,30.8038275 C29.9673954,30.701848 29.8614018,30.6390915 29.7475567,30.6390915 L28.4685664,30.6390915 L28.4685664,29.6545978 C28.4685664,29.2937475 28.1851314,29.0019294 27.8333894,29.0019294 C27.4840029,29.0019294 27.1997828,29.2937475 27.1997828,29.6545978 L27.1997828,30.6406604 L25.9207925,30.6406604 C25.8061623,30.6406604 25.7009537,30.701848 25.6452089,30.8046119 C25.588679,30.9073758 25.5902492,31.032889 25.6491346,31.1332995 L27.5617316,34.4131148 C27.6190467,34.5119564 27.7226849,34.5723596 27.8341746,34.5723596 C27.9464494,34.5723596 28.0500876,34.5111719 28.1074027,34.4131148" id="Fill-11" sketch:type="MSShapeGroup"></path>
                <path d="M26.2534556,34.4391587 C26.2534556,34.0736017 25.9660949,33.7778614 25.6104273,33.7778614 C25.2555448,33.7778614 24.9681841,34.0736017 24.9681841,34.4391587 C24.9681841,34.8039313 25.2555448,35.1004561 25.6104273,35.1004561 C25.9660949,35.1004561 26.2534556,34.8039313 26.2534556,34.4391587" id="Fill-13" sketch:type="MSShapeGroup"></path>
                <path d="M26.4784762,35.5292404 C26.1235937,35.5292404 25.8354479,35.8249807 25.8354479,36.1905377 C25.8354479,36.5560948 26.1235937,36.8518351 26.4784762,36.8518351 C26.8333587,36.8518351 27.1215045,36.5560948 27.1215045,36.1905377 C27.1215045,35.8249807 26.8333587,35.5292404 26.4784762,35.5292404" id="Fill-15" sketch:type="MSShapeGroup"></path>
                <path d="M28.4058338,35.5292404 C28.0509513,35.5292404 27.7628055,35.8249807 27.7628055,36.1905377 C27.7628055,36.5560948 28.0509513,36.8518351 28.4058338,36.8518351 C28.7607163,36.8518351 29.048077,36.5560948 29.048077,36.1905377 C29.048077,35.8249807 28.7607163,35.5292404 28.4058338,35.5292404" id="Fill-17" sketch:type="MSShapeGroup"></path>
                <path d="M30.1089559,34.6034241 C29.7540733,34.6034241 29.4659276,34.8991644 29.4659276,35.2647214 C29.4659276,35.6302784 29.7540733,35.9260188 30.1089559,35.9260188 C30.4638384,35.9260188 30.7519842,35.6302784 30.7519842,35.2647214 C30.7519842,34.8991644 30.4638384,34.6034241 30.1089559,34.6034241" id="Fill-19" sketch:type="MSShapeGroup"></path>
                <path d="M31.1051394,32.8192547 C30.7502569,32.8192547 30.4621111,33.1149951 30.4621111,33.4805521 C30.4621111,33.8461091 30.7502569,34.1418495 31.1051394,34.1418495 C31.4600219,34.1418495 31.7481677,33.8461091 31.7481677,33.4805521 C31.7481677,33.1149951 31.4600219,32.8192547 31.1051394,32.8192547" id="Fill-21" sketch:type="MSShapeGroup"></path>
                <path d="M32.1977379,31.166482 C31.8428554,31.166482 31.5547096,31.4622223 31.5547096,31.8277794 C31.5547096,32.1933364 31.8428554,32.4890767 32.1977379,32.4890767 C32.5526204,32.4890767 32.8407662,32.1933364 32.8407662,31.8277794 C32.8407662,31.4622223 32.5526204,31.166482 32.1977379,31.166482" id="Fill-23" sketch:type="MSShapeGroup"></path>
                <path d="M33.611615,31.0350854 C33.9664975,31.0350854 34.2546433,30.7393451 34.2546433,30.3737881 C34.2546433,30.008231 33.9664975,29.7124907 33.611615,29.7124907 C33.2567325,29.7124907 32.9693718,30.008231 32.9693718,30.3737881 C32.9693718,30.7393451 33.2567325,31.0350854 33.611615,31.0350854" id="Fill-25" sketch:type="MSShapeGroup"></path>
                <path d="M35.4433427,30.3406055 C35.7982253,30.3406055 36.086371,30.0448652 36.086371,29.6793082 C36.086371,29.3145356 35.7982253,29.0180108 35.4433427,29.0180108 C35.0884602,29.0180108 34.8003144,29.3145356 34.8003144,29.6793082 C34.8003144,30.0448652 35.0884602,30.3406055 35.4433427,30.3406055" id="Fill-27" sketch:type="MSShapeGroup"></path>
                <path d="M37.4036761,29.1834528 C37.0487936,29.1834528 36.7606478,29.4791932 36.7606478,29.8447502 C36.7606478,30.2103072 37.0487936,30.5060475 37.4036761,30.5060475 C37.7585587,30.5060475 38.0467044,30.2103072 38.0467044,29.8447502 C38.0467044,29.4791932 37.7585587,29.1834528 37.4036761,29.1834528" id="Fill-29" sketch:type="MSShapeGroup"></path>
                <path d="M39.2352468,31.2656374 C39.5901294,31.2656374 39.8782751,30.9698971 39.8782751,30.60434 C39.8782751,30.238783 39.5901294,29.9430427 39.2352468,29.9430427 C38.8803643,29.9430427 38.5930037,30.238783 38.5930037,30.60434 C38.5930037,30.9698971 38.8803643,31.2656374 39.2352468,31.2656374" id="Fill-31" sketch:type="MSShapeGroup"></path>
                <path d="M40.4886417,32.8529864 C40.8435242,32.8529864 41.13167,32.5572461 41.13167,32.191689 C41.13167,31.826132 40.8435242,31.5303917 40.4886417,31.5303917 C40.1337591,31.5303917 39.8456134,31.826132 39.8456134,32.191689 C39.8456134,32.5572461 40.1337591,32.8529864 40.4886417,32.8529864" id="Fill-33" sketch:type="MSShapeGroup"></path>
                <path d="M40.7778866,33.5133424 C40.4230041,33.5133424 40.1348583,33.8090828 40.1348583,34.1746398 C40.1348583,34.5401968 40.4230041,34.8359372 40.7778866,34.8359372 C41.1327692,34.8359372 41.4201298,34.5401968 41.4201298,34.1746398 C41.4201298,33.8090828 41.1327692,33.5133424 40.7778866,33.5133424" id="Fill-35" sketch:type="MSShapeGroup"></path>
                <path d="M40.070791,35.3304589 C39.7159085,35.3304589 39.4277627,35.6261993 39.4277627,35.9917563 C39.4277627,36.3573133 39.7159085,36.6530537 40.070791,36.6530537 C40.4256736,36.6530537 40.7138193,36.3573133 40.7138193,35.9917563 C40.7138193,35.6261993 40.4256736,35.3304589 40.070791,35.3304589" id="Fill-37" sketch:type="MSShapeGroup"></path>
                <path d="M38.6569139,36.751503 C38.3020314,36.751503 38.0138856,37.0472434 38.0138856,37.4128004 C38.0138856,37.7783574 38.3020314,38.0740978 38.6569139,38.0740978 C39.0117965,38.0740978 39.2999422,37.7783574 39.2999422,37.4128004 C39.2999422,37.0472434 39.0117965,36.751503 38.6569139,36.751503" id="Fill-39" sketch:type="MSShapeGroup"></path>
                <path d="M36.7609619,37.2804625 C36.4060794,37.2804625 36.1179336,37.5762028 36.1179336,37.9417598 C36.1179336,38.3073169 36.4060794,38.6030572 36.7609619,38.6030572 C37.1158444,38.6030572 37.4039902,38.3073169 37.4039902,37.9417598 C37.4039902,37.5762028 37.1158444,37.2804625 36.7609619,37.2804625" id="Fill-41" sketch:type="MSShapeGroup"></path>
                <path d="M34.8328192,36.8511291 C34.4779366,36.8511291 34.1897909,37.1468694 34.1897909,37.5124265 C34.1897909,37.877199 34.4779366,38.1737238 34.8328192,38.1737238 C35.1877017,38.1737238 35.4758475,37.877199 35.4758475,37.5124265 C35.4758475,37.1468694 35.1877017,36.8511291 34.8328192,36.8511291" id="Fill-43" sketch:type="MSShapeGroup"></path>
                <path d="M34.4151256,35.8594184 C34.4151256,35.4946458 34.1269798,35.198121 33.7720973,35.198121 C33.4172148,35.198121 33.1298541,35.4946458 33.1298541,35.8594184 C33.1298541,36.2241909 33.4172148,36.5207157 33.7720973,36.5207157 C34.1269798,36.5207157 34.4151256,36.2241909 34.4151256,35.8594184" id="Fill-45" sketch:type="MSShapeGroup"></path>
                <path d="M33.7402207,34.0423019 C33.7402207,34.4070744 34.0275813,34.7035992 34.383249,34.7035992 C34.7381315,34.7035992 35.0254921,34.4070744 35.0254921,34.0423019 C35.0254921,33.6775293 34.7381315,33.3810045 34.383249,33.3810045 C34.0275813,33.3810045 33.7402207,33.6775293 33.7402207,34.0423019" id="Fill-47" sketch:type="MSShapeGroup"></path>
                <path d="M36.8894105,33.7113394 C36.8894105,33.3457824 36.6020499,33.050042 36.2471674,33.050042 C35.8914997,33.050042 35.6041391,33.3457824 35.6041391,33.7113394 C35.6041391,34.076112 35.8914997,34.3726368 36.2471674,34.3726368 C36.6020499,34.3726368 36.8894105,34.076112 36.8894105,33.7113394" id="Fill-49" sketch:type="MSShapeGroup"></path>
                <path d="M36.7609619,34.8677077 C36.4060794,34.8677077 36.1179336,35.163448 36.1179336,35.529005 C36.1179336,35.8945621 36.4060794,36.1903024 36.7609619,36.1903024 C37.1158444,36.1903024 37.4039902,35.8945621 37.4039902,35.529005 C37.4039902,35.163448 37.1158444,34.8677077 36.7609619,34.8677077" id="Fill-51" sketch:type="MSShapeGroup"></path>
                <path d="M109.814315,34.377422 L138.775713,34.377422 L138.775713,43.3461204 L147.751414,34.377422 L155.577673,34.377422 C157.272787,34.377422 158.65149,32.9881484 158.65149,31.2796007 L158.65149,3.51060257 C158.65149,1.80283939 157.272787,0.412781345 155.577673,0.412781345 L155.577673,1.98169562 C156.406779,1.98169562 157.081213,2.66809561 157.081213,3.51060257 L157.081213,31.2796007 C157.081213,32.1221077 156.406779,32.8085077 155.577673,32.8085077 L147.10132,32.8085077 L140.345989,39.5579769 L140.345989,32.8085077 L109.814315,32.8085077 C108.985209,32.8085077 108.30999,32.1221077 108.30999,31.2796007 L108.30999,3.51060257 C108.30999,2.66809561 108.985209,1.98169562 109.814315,1.98169562 L155.576888,1.98169562 L155.576888,0.412781345 L109.814315,0.412781345 C108.119201,0.412781345 106.739713,1.80283939 106.739713,3.51060257 L106.739713,31.2796007 C106.739713,32.9881484 108.119201,34.377422 109.814315,34.377422" id="Fill-53" sketch:type="MSShapeGroup"></path>
                <path d="M16.0305619,134.335617 C15.6913822,134.605471 15.6348522,135.098894 15.9049398,135.43778 C16.1742422,135.776665 16.6680942,135.833146 17.0080591,135.563293 C17.2553777,135.367963 41.963681,116.194262 65.4746484,136.784693 C65.6238247,136.914912 65.8083322,136.979238 65.9920546,136.979238 C66.210323,136.979238 66.4270212,136.888241 66.5824786,136.711738 C66.868269,136.385404 66.8360783,135.890411 66.5094608,135.604869 C42.0233516,114.158595 16.2873021,134.131659 16.0305619,134.335617" id="Fill-55" sketch:type="MSShapeGroup"></path>
                <path d="M76.4432665,96.8428808 C62.324909,100.576112 54.163396,107.89196 53.822646,108.201036 C53.5015244,108.493638 53.4779702,108.989415 53.7700417,109.309474 C54.061328,109.629532 54.5583206,109.65385 54.8794422,109.362032 C54.9603114,109.288293 63.0943445,101.995195 76.8444722,98.3600209 C89.5542915,94.9994065 109.770033,94.195338 133.898905,109.4444 C134.029238,109.526768 134.174488,109.565991 134.318168,109.565991 C134.578049,109.565991 134.833219,109.43734 134.982395,109.201219 C135.214011,108.834877 135.104877,108.350083 134.739003,108.118668 C110.130412,92.5668049 89.4545789,93.4030362 76.4432665,96.8428808" id="Fill-57" sketch:type="MSShapeGroup"></path>
                <path d="M115.655666,63.712275 C113.346574,60.7321223 111.467738,56.0089059 111.467738,53.1840758 C111.467738,47.5493202 115.945382,42.9657371 121.448416,42.9657371 C126.952236,42.9657371 131.42988,47.5493202 131.42988,53.1840758 L131.430665,53.1848602 C131.430665,55.9861567 129.353974,60.8215505 126.599709,64.4316222 C124.549713,67.1191723 122.451038,69.7965245 121.444491,71.0744052 C120.434803,69.8098603 118.278028,67.0948542 115.655666,63.712275 M41.6163359,108.318077 C41.3117022,108.626368 41.3148427,109.12293 41.6234021,109.427299 C41.9311763,109.732453 42.428954,109.729315 42.7335877,109.421808 C42.8435071,109.310415 53.9194535,98.2762409 71.9305269,92.8156347 C88.5189296,87.7849111 114.588663,86.5956741 144.559748,109.493193 C144.701858,109.602233 144.869878,109.654007 145.035542,109.654007 C145.272654,109.654007 145.50584,109.548105 145.660512,109.3465 C145.923534,109.002123 145.858367,108.509484 145.513691,108.246691 C137.44404,102.081642 129.651542,97.6478907 122.23434,94.5351648 L122.23434,72.6080189 C122.893071,71.774141 125.403158,68.5884606 127.848864,65.3823842 C130.834745,61.4687276 133.000942,56.3383779 133.000157,53.1840758 C133.000157,46.684064 127.818244,41.3968229 121.448416,41.3968229 C115.079374,41.3968229 109.897461,46.684064 109.897461,53.1840758 C109.897461,56.3572049 111.881506,61.4036176 114.414362,64.673235 C117.547064,68.7131892 120.013969,71.801597 120.664063,72.6119412 L120.664063,93.8832809 C100.691714,85.9477125 83.5647067,87.6350798 71.4068396,91.3345797 C53.036958,96.9222678 41.7286106,108.205115 41.6163359,108.318077" id="Fill-59" sketch:type="MSShapeGroup"></path>
                <path d="M14.2367564,87.235242 C11.9276645,84.2543049 10.0488285,79.5318729 10.0488285,76.7078272 C10.0488285,71.0730716 14.5264724,66.4894886 20.029507,66.4894886 C25.5333267,66.4894886 30.0109706,71.0730716 30.0109706,76.7078272 C30.0109706,79.5083392 27.9342797,84.343733 25.1807996,87.9545892 C23.1300183,90.6421394 21.0305584,93.3194916 20.0247962,94.5973722 C19.0151083,93.3336118 16.8575481,90.6178212 14.2367564,87.235242 M40.2381825,113.086242 C33.0251167,113.296477 26.4550791,115.1274 20.8146453,117.558433 L20.8146453,96.1302015 C21.4749467,95.2947546 23.9842488,92.1114276 26.4299547,88.9061357 C29.4150506,84.9909101 31.5812473,79.8613449 31.5812473,76.7078272 C31.5812473,70.2078154 26.3993343,64.9205743 20.029507,64.9205743 C13.6604648,64.9205743 8.47855183,70.2078154 8.47855183,76.7078272 C8.47855183,79.8801719 10.4625964,84.9265847 12.9946675,88.196202 C16.1273695,92.2377252 18.5958444,95.3261329 19.2443687,96.1364771 L19.2443687,118.262875 C7.60469287,123.666216 0.319394274,131.360956 0.210260046,131.477056 C-0.0849519676,131.794761 -0.066893786,132.291322 0.250302101,132.586278 C0.40104866,132.726696 0.593407552,132.796512 0.784981305,132.796512 C0.995398379,132.796512 1.20503031,132.712576 1.35970256,132.546271 C1.52065592,132.37369 17.6638852,115.312532 40.2837206,114.655157 C54.4625337,114.23155 68.1726193,120.273439 81.0465325,132.578433 C81.3598027,132.878096 81.8567953,132.867114 82.1567181,132.554115 C82.456641,132.241117 82.445649,131.744555 82.1323788,131.444893 C68.94284,118.838667 54.8551029,112.664989 40.2381825,113.086242" id="Fill-61" sketch:type="MSShapeGroup"></path>
                <path d="M131.9772,120.910575 C120.364219,124.430434 112.703624,131.539969 112.383288,131.841201 C112.067662,132.137725 112.051959,132.634287 112.348742,132.949638 C112.645524,133.265775 113.142516,133.282248 113.458927,132.984939 C113.535086,132.912769 121.211383,125.797743 132.486755,122.395552 C147.528435,117.857468 161.523526,121.727979 174.083384,133.901185 C174.236486,134.048663 174.433555,134.122402 174.630625,134.122402 C174.834761,134.122402 175.039682,134.042387 175.193569,133.883927 C175.495847,133.573282 175.487996,133.076721 175.177081,132.774705 C158.96476,117.062028 142.736736,117.650371 131.9772,120.910575" id="Fill-63" sketch:type="MSShapeGroup"></path>
                <path d="M120.99335,134.254034 C120.68008,134.553696 120.668303,135.050258 120.968226,135.363256 C121.268934,135.677039 121.765141,135.687237 122.078411,135.388359 C122.289614,135.185969 143.560581,115.401175 168.272025,137.08514 C168.421202,137.21536 168.605709,137.279685 168.789431,137.279685 C169.0077,137.279685 169.225183,137.189472 169.379855,137.01297 C169.666431,136.688204 169.63424,136.192427 169.308408,135.906101 C143.529176,113.285495 121.215544,134.041446 120.99335,134.254034" id="Fill-65" sketch:type="MSShapeGroup"></path>
                <path d="M124.85576,113.260941 C125.107789,113.260941 125.355108,113.140135 125.507425,112.91578 C125.750032,112.557283 125.655816,112.068566 125.296222,111.826169 C93.0568721,90.0590524 64.5830453,110.411793 64.2996104,110.620458 C63.9502238,110.876191 63.8748506,111.367262 64.1315908,111.716345 C64.3875459,112.066213 64.8782574,112.140736 65.228429,111.885788 C65.5040126,111.684182 93.1173278,91.9927392 124.416867,113.126799 C124.551911,113.217011 124.705013,113.260941 124.85576,113.260941" id="Fill-67" sketch:type="MSShapeGroup"></path>
                <path d="M142.492244,113.086321 C119.223099,113.762523 102.6292,131.300631 102.464321,131.477134 C102.168324,131.794839 102.186382,132.290616 102.503578,132.585572 C102.65511,132.726774 102.846683,132.795806 103.039042,132.795806 C103.248674,132.795806 103.459091,132.712654 103.612978,132.546349 C103.773932,132.373769 119.917946,115.311826 142.537782,114.655235 C156.721306,114.231628 170.42668,120.273517 183.299808,132.578512 C183.613079,132.878174 184.110856,132.867192 184.409994,132.554194 C184.709917,132.240411 184.698925,131.744634 184.385655,131.444971 C171.197686,118.838745 157.106023,112.662714 142.492244,113.086321" id="Fill-69" sketch:type="MSShapeGroup"></path>
                <path d="M28.8396227,121.326965 C17.2297822,124.815446 9.61472551,131.641007 9.29595935,131.930472 C8.97562291,132.221505 8.95128362,132.717282 9.24335508,133.038125 C9.39802733,133.208352 9.61079982,133.295427 9.82435745,133.295427 C10.0127906,133.295427 10.2012238,133.227964 10.3519704,133.091468 C10.4273437,133.023221 18.0188462,126.216486 29.2918624,122.829985 C44.3704441,118.298176 58.4762394,121.75214 71.2151088,133.096175 C71.5385858,133.384071 72.0347933,133.35583 72.3237242,133.032634 C72.6118699,132.709438 72.583605,132.213661 72.260128,131.924981 C55.8507368,117.312898 39.5913071,118.09657 28.8396227,121.326965" id="Fill-71" sketch:type="MSShapeGroup"></path>
                <path d="M20.0294285,81.448694 C17.4392571,81.448694 15.332731,79.2875145 15.332731,76.6305582 C15.332731,73.9736019 17.4392571,71.8124225 20.0294285,71.8124225 C22.6195998,71.8124225 24.7269111,73.9736019 24.7269111,76.6305582 C24.7269111,79.2875145 22.6195998,81.448694 20.0294285,81.448694 M20.0294285,70.2435082 C16.5740347,70.2435082 13.7624543,73.1083457 13.7624543,76.6305582 C13.7624543,80.1527708 16.5740347,83.0176082 20.0294285,83.0176082 C23.4856074,83.0176082 26.2971878,80.1527708 26.2971878,76.6305582 C26.2971878,73.1083457 23.4856074,70.2435082 20.0294285,70.2435082" id="Fill-73" sketch:type="MSShapeGroup"></path>
                <path d="M116.752111,53.1082972 C116.752111,50.4513409 118.859423,48.2901615 121.449594,48.2901615 C124.039765,48.2901615 126.146292,50.4513409 126.146292,53.1082972 C126.146292,55.7652535 124.039765,57.9264329 121.449594,57.9264329 C118.859423,57.9264329 116.752111,55.7652535 116.752111,53.1082972 M127.716568,53.1082972 C127.716568,49.5860847 124.904988,46.7212472 121.449594,46.7212472 C117.993415,46.7212472 115.181835,49.5860847 115.181835,53.1082972 C115.181835,56.6305098 117.993415,59.4953472 121.449594,59.4953472 C124.904988,59.4953472 127.716568,56.6305098 127.716568,53.1082972" id="Fill-75" sketch:type="MSShapeGroup"></path>
                <path d="M188.4332,90.7955792 C188.4332,93.8251526 185.960799,96.2899169 182.920744,96.2899169 L156.186783,96.2899169 C153.147513,96.2899169 150.675112,93.8251526 150.675112,90.7955792 L150.675112,90.4551248 C150.675112,87.4255513 153.147513,84.960787 156.186783,84.960787 L159.189152,84.960787 C159.612342,84.960787 159.960158,84.6250393 159.974291,84.2022169 C160.074788,81.2228487 162.489089,78.8890888 165.470259,78.8890888 L165.772537,78.8890888 C166.563957,78.8890888 167.327111,79.0546092 168.041587,79.3801589 C168.430231,79.5582307 168.893462,79.3903569 169.077185,79.002835 C169.984019,77.0903285 171.936658,75.8540241 174.051036,75.8540241 L174.352529,75.8540241 C177.385518,75.8540241 179.852423,78.3227107 179.852423,81.3562065 L179.851638,84.1755454 C179.851638,84.384211 179.934077,84.5834631 180.081683,84.7309411 C180.228504,84.8776345 180.428715,84.960787 180.636776,84.960787 L182.920744,84.960787 C185.960799,84.960787 188.4332,87.4255513 188.4332,90.4551248 L188.4332,90.7955792 Z M182.920744,83.3918727 L181.4227,83.3918727 L181.4227,81.3569909 C181.4227,77.4574545 178.250741,74.2851098 174.352529,74.2851098 L174.051036,74.2851098 C171.580206,74.2851098 169.281321,75.5975066 168.008611,77.6825937 C167.290995,77.4417653 166.541973,77.3201745 165.772537,77.3201745 L165.470259,77.3201745 C161.894739,77.3201745 158.953611,79.9316323 158.469966,83.3918727 L156.186783,83.3918727 C152.281505,83.3918727 149.104836,86.5602951 149.104836,90.4551248 L149.104836,90.7955792 C149.104836,94.6904088 152.281505,97.8588312 156.186783,97.8588312 L182.920744,97.8588312 C186.826022,97.8588312 190.003477,94.6904088 190.003477,90.7955792 L190.003477,90.4551248 C190.003477,86.5602951 186.826022,83.3918727 182.920744,83.3918727 L182.920744,83.3918727 Z" id="Fill-77" sketch:type="MSShapeGroup"></path>
                <path d="M63.0755797,68.0229454 L64.7337919,68.0229454 C65.1530558,68.0229454 65.4993018,67.692689 65.5181451,67.2737888 C65.5919481,65.6272133 66.942386,64.3367813 68.5919617,64.3367813 C69.0528379,64.3367813 69.496441,64.4371918 69.9078535,64.6340906 C70.0970719,64.7235187 70.31377,64.73607 70.5100546,64.6646844 C70.7071243,64.5948677 70.8680777,64.4497432 70.9567983,64.260689 C71.4639977,63.1875516 72.5561251,62.4940915 73.7401137,62.4940915 C75.4375828,62.4940915 76.8170708,63.8739516 76.8170708,65.5699479 L76.8170708,67.1773006 C76.8131452,67.2384883 76.8155006,67.3012448 76.8249222,67.3640014 C76.8869482,67.7444631 77.215136,68.0229454 77.6006389,68.0229454 L78.8262398,68.0229454 C80.5566847,68.0229454 81.9644378,69.4279081 81.9644378,71.1544983 C81.9644378,72.8810884 80.5566847,74.2860512 78.827025,74.2860512 L63.0747946,74.2860512 C61.3443497,74.2860512 59.9373818,72.8810884 59.9373818,71.1544983 C59.9373818,69.4279081 61.3451349,68.0229454 63.0755797,68.0229454 M63.0747946,75.8549655 L78.827025,75.8549655 C81.4226923,75.8549655 83.5347144,73.7463447 83.5347144,71.1544983 C83.5347144,68.5626519 81.4219072,66.4540311 78.8262398,66.4540311 L78.3873475,66.4540311 L78.3873475,65.5699479 C78.3873475,63.0086954 76.3028052,60.9251772 73.7401137,60.9251772 C72.198102,60.9251772 70.7589435,61.7033587 69.9015724,62.9553523 C69.479168,62.8306236 69.0410608,62.7678671 68.5919617,62.7678671 C66.3566728,62.7678671 64.4856882,64.3359969 64.0436553,66.4540311 L63.0755797,66.4540311 C60.4791273,66.4540311 58.3671052,68.5626519 58.3671052,71.1544983 C58.3671052,73.7463447 60.4791273,75.8549655 63.0747946,75.8549655" id="Fill-79" sketch:type="MSShapeGroup"></path>
                <path d="M8.80980169,22.4420635 C8.80980169,21.5603337 9.51564105,20.8433399 10.384004,20.8433399 L56.005252,20.8441243 C56.873615,20.8441243 57.5794544,21.5611182 57.5794544,22.442848 L57.5794544,51.8090009 C57.5794544,52.6915151 56.873615,53.4092934 56.005252,53.4092934 L44.3537992,53.4092934 L37.6573543,60.1634694 L37.5937581,53.4092934 L10.384004,53.4092934 C9.51564105,53.4092934 8.80980169,52.6907307 8.80980169,51.8082164 L8.80980169,22.4420635 Z M10.384004,54.9782077 L36.0383991,54.9782077 L36.1224089,63.9414149 L45.0086045,54.9782077 L56.005252,54.9782077 C57.7388375,54.9782077 59.149731,53.5567714 59.149731,51.8090009 L59.149731,22.442848 C59.149731,20.6958619 57.7388375,19.2752101 56.005252,19.2752101 L10.384004,19.2744256 C8.65041861,19.2744256 7.23952503,20.6950775 7.23952503,22.4420635 L7.23952503,51.8082164 C7.23952503,53.5559869 8.65041861,54.9782077 10.384004,54.9782077 L10.384004,54.9782077 Z" id="Fill-81" sketch:type="MSShapeGroup"></path>
            </g>
        </g>
    </g>
</svg>