<?xml version="1.0" encoding="UTF-8" standalone="no"?>
<svg width="16px" height="29px" viewBox="0 0 16 29" version="1.1" xmlns="http://www.w3.org/2000/svg" xmlns:xlink="http://www.w3.org/1999/xlink">
    <!-- Generator: Sketch 3.7.1 (28215) - http://www.bohemiancoding.com/sketch -->
    <title>angle-right</title>
    <desc>Created with Sketch.</desc>
    <defs></defs>
    <g id="Page-1" stroke="none" stroke-width="1" fill="none" fill-rule="evenodd">
        <g id="angle-right" fill="#00AEE8">
            <path d="M2.28207095,0 C2.52423316,0 2.72945536,0.0902977715 2.91415535,0.270893314 L15.7241256,13.084968 C15.9047211,13.2614591 15.9991233,13.4748902 15.9991233,13.7129479 C15.9991233,13.9510057 15.9047211,14.1603323 15.7241256,14.3450323 L2.91415535,27.1508981 C2.72945536,27.3355981 2.52423316,27.4300003 2.28207095,27.4300003 C2.04401319,27.4300003 1.83468654,27.3355981 1.64998655,27.1508981 L0.279102203,25.7800138 C0.0944022156,25.5953138 0,25.3859871 0,25.1479294 C0,24.9098716 0.0944022156,24.7005449 0.279102203,24.515845 L11.0778948,13.7129479 L0.279102203,2.91005091 C0.0944022156,2.72945536 0,2.51602427 0,2.28207095 C0,2.03990875 0.0944022156,1.83058209 0.279102203,1.64588211 L1.64998655,0.270893314 C1.83468654,0.0902977715 2.04401319,0 2.28207095,0" id="Fill-1"></path>
        </g>
    </g>
</svg>