<?xml version="1.0" encoding="UTF-8" standalone="no"?>
<svg width="144px" height="59px" viewBox="0 0 144 59" version="1.1" xmlns="http://www.w3.org/2000/svg" xmlns:xlink="http://www.w3.org/1999/xlink">
    <!-- Generator: Sketch 3.7.1 (28215) - http://www.bohemiancoding.com/sketch -->
    <title>mozilla-advocacy</title>
    <desc>Created with Sketch.</desc>
    <defs>
        <polygon id="path-1" points="0.2344 26 17.4784 26 17.4784 0.7294 0.2344 0.7294 0.2344 26"></polygon>
    </defs>
    <g id="Page-1" stroke="none" stroke-width="1" fill="none" fill-rule="evenodd">
        <g id="mozilla-advocacy">
            <g id="mozilla" transform="translate(4.000000, 3.000000)" fill="#CFA3CB">
                <path d="M0.02926875,5.02932187 L2.15226875,4.45032187 C2.31026875,4.69632187 2.38126875,4.90632187 2.46826875,5.36232187 C3.08226875,4.76632187 3.83726875,4.45032187 4.66126875,4.45032187 C5.39926875,4.45032187 6.01326875,4.69632187 6.48726875,5.18732187 C6.60926875,5.31032187 6.66226875,5.38032187 6.83826875,5.62632187 C7.66226875,4.78332187 8.39926875,4.45032187 9.38226875,4.45032187 C10.0842687,4.45032187 10.7512687,4.66132187 11.1542687,5.01232187 C11.6632688,5.45032187 11.8212687,5.97732187 11.8212687,7.20532187 L11.8212687,13.5923219 L9.54026875,13.5923219 L9.54026875,7.66132187 C9.54026875,6.59132187 9.41726875,6.38132187 8.80326875,6.38132187 C8.36426875,6.38132187 7.75026875,6.67932187 7.24126875,7.13532187 L7.24126875,13.5923219 L5.01226875,13.5923219 L5.01226875,7.74932187 C5.01226875,6.62632187 4.85526875,6.36332187 4.20526875,6.36332187 C3.76726875,6.36332187 3.17026875,6.59132187 2.66126875,7.04732187 L2.66126875,13.5923219 L0.36226875,13.5923219 L0.36226875,7.32832187 C0.36226875,6.02932187 0.27526875,5.46832187 0.02926875,5.02932187" id="Fill-1"></path>
                <path d="M17.5097688,6.16992188 C16.9477688,6.16992188 16.4917688,6.52092187 16.2987688,7.08292187 C16.1407688,7.55692188 16.0527688,8.18792188 16.0527688,9.08292187 C16.0527688,10.1179219 16.1587688,10.8909219 16.3517688,11.3469219 C16.5617688,11.8379219 17.0887688,12.0839219 17.5447688,12.0839219 C18.5627688,12.0839219 19.0007688,11.1709219 19.0007688,9.04792188 C19.0007688,7.83692188 18.8427688,7.04692188 18.5277688,6.64392187 C18.2997688,6.34592188 17.9307688,6.16992188 17.5097688,6.16992188 M17.4747688,4.43292188 C18.7557688,4.43292188 19.7557688,4.87192188 20.5277688,5.78392188 C21.2467688,6.62692188 21.5627688,7.60892188 21.5627688,9.06592188 C21.5627688,10.6099219 21.2127688,11.6629219 20.4397688,12.5399219 C19.7557688,13.3119219 18.8607688,13.7859219 17.4747688,13.7859219 C15.0357688,13.7859219 13.4387688,11.9609219 13.4387688,9.13592188 C13.4387688,6.31092188 15.0527688,4.43292188 17.4747688,4.43292188" id="Fill-3"></path>
                <polygon id="Fill-5" points="22.5473688 4.66112187 29.2153688 4.66112187 29.2153688 6.27512187 25.2503688 11.9611219 29.3733688 11.9611219 28.8123688 13.5931219 22.1963688 13.5931219 22.1963688 12.1361219 26.4253688 6.31012187 22.5473688 6.31012187"></polygon>
                <path d="M30.5678688,4.76612187 L32.9198687,4.39812187 L32.9198687,13.5931219 L30.5678688,13.5931219 L30.5678688,4.76612187 Z M31.7788687,0.678121875 C32.5678688,0.678121875 33.1998687,1.32712187 33.1998687,2.13412187 C33.1998687,2.94112187 32.5508687,3.59112187 31.7438687,3.59112187 C30.9538687,3.59112187 30.3048687,2.94112187 30.3048687,2.13412187 C30.3048687,1.32712187 30.9718687,0.678121875 31.7788687,0.678121875 L31.7788687,0.678121875 Z" id="Fill-7"></path>
                <path d="M37.3075688,0.607421875 C37.3955688,1.09842187 37.4305687,1.67742188 37.4305687,2.94142188 L37.4305687,9.94242188 C37.4305687,11.4874219 37.4485687,11.6974219 37.5885688,11.9434219 C37.6765688,12.1014219 37.8695687,12.1894219 38.0615687,12.1894219 C38.1495688,12.1894219 38.2025688,12.1894219 38.3255688,12.1534219 L38.7285688,13.5574219 C38.3255688,13.7154219 37.8335688,13.8034219 37.3255688,13.8034219 C36.3255688,13.8034219 35.5175688,13.3294219 35.2365688,12.5754219 C35.0615687,12.1184219 35.0265688,11.8374219 35.0265688,10.5574219 L35.0265688,3.85442187 C35.0265688,2.67842187 34.9915687,1.95842187 34.9035688,1.15142187 L37.3075688,0.607421875 Z" id="Fill-9"></path>
                <path d="M42.0287687,0.607421875 C42.1167687,1.09842187 42.1517687,1.67742188 42.1517687,2.94142188 L42.1517687,9.94242188 C42.1517687,11.4874219 42.1687687,11.6974219 42.3097687,11.9434219 C42.3977687,12.1014219 42.5907687,12.1894219 42.7827687,12.1894219 C42.8707687,12.1894219 42.9237687,12.1894219 43.0467687,12.1534219 L43.4497687,13.5574219 C43.0467687,13.7154219 42.5547687,13.8034219 42.0467687,13.8034219 C41.0457687,13.8034219 40.2387687,13.3294219 39.9577687,12.5754219 C39.7827687,12.1184219 39.7477687,11.8374219 39.7477687,10.5574219 L39.7477687,3.85442187 C39.7477687,2.67842187 39.7127687,1.95842187 39.6247687,1.15142187 L42.0287687,0.607421875 Z" id="Fill-11"></path>
                <path d="M48.7504688,9.66212188 L48.6454688,9.66212188 C47.0134688,9.66212188 46.4514688,9.96012188 46.4514688,11.0311219 C46.4514688,11.7331219 46.8904688,12.2061219 47.4864688,12.2061219 C47.9254688,12.2061219 48.3644688,11.9781219 48.7154688,11.5921219 L48.7504688,9.66212188 Z M44.1354687,5.67912188 C44.7144687,5.31012188 44.9594687,5.18712188 45.5914687,4.94212188 C46.4694687,4.57312188 47.2234687,4.41512188 48.0484687,4.41512188 C49.5574687,4.41512188 50.5924687,4.97712188 50.9434687,5.97712188 C51.0664687,6.34612188 51.1014687,6.62612188 51.1014687,7.59112188 L51.0494687,10.6101219 L51.0494687,10.7671219 C51.0494687,11.7331219 51.2074687,12.1011219 51.8914687,12.6101219 L50.6454687,14.0491219 C50.1014687,13.8211219 49.6104687,13.4171219 49.3824687,12.9611219 C49.0484687,13.2771219 49.0134687,13.3121219 48.8384687,13.4351219 C48.3994687,13.7501219 47.7674687,13.9261219 47.0304687,13.9261219 C45.0304687,13.9261219 43.9424687,12.9081219 43.9424687,11.1191219 C43.9424687,9.01312188 45.3984687,8.03012188 48.2594687,8.03012188 C48.4344687,8.03012188 48.5404687,8.03012188 48.7854687,8.04812188 L48.7854687,7.67912188 C48.7854687,6.67912188 48.5924687,6.34612188 47.7324687,6.34612188 C46.9784687,6.34612188 46.1004687,6.71412188 45.1354687,7.36312188 L44.1354687,5.67912188 Z" id="Fill-13"></path>
            </g>
            <g id="advocacy" transform="translate(3.000000, 22.000000)">
                <path d="M8.64456875,16.1645219 L13.2695688,16.1645219 C13.2695688,16.1645219 12.4875688,13.6815219 11.9775688,11.4025219 C11.7395688,10.3145219 11.0255688,7.21952187 11.0255688,7.21952187 C11.0255688,7.21952187 10.3455688,10.0085219 9.90256875,11.7765219 C9.46056875,13.4775219 9.15456875,14.5995219 8.64456875,16.1645219 L8.64456875,16.1645219 Z M8.61056875,2.01552187 L13.7465688,2.01552187 L21.1945688,25.7215219 L16.0925688,25.7215219 L14.4265688,20.1095219 L7.48756875,20.1095219 L5.82156875,25.7215219 L0.85556875,25.7215219 L8.61056875,2.01552187 Z" id="Fill-15" fill="#FFFFFF"></path>
                <path d="M32.1840687,12.8994219 C31.3330687,12.1504219 30.5170687,11.7764219 29.7010687,11.7764219 C27.6600687,11.7764219 26.7760687,13.4774219 26.7760687,17.3554219 C26.7760687,21.0964219 27.5580687,22.3204219 29.9390687,22.3204219 C30.7890687,22.3204219 31.7420687,21.7424219 32.1840687,21.1984219 L32.1840687,12.8994219 Z M36.6400687,1.26742187 L36.6400687,19.3614219 C36.6400687,23.6474219 36.9790687,25.0414219 37.2860687,25.7214219 L33.2040687,25.7214219 C33.0680687,25.4494219 33.0000687,25.1774219 32.9320687,24.7014219 C31.8090687,25.6874219 30.4830687,26.1644219 28.9190687,26.1644219 C24.4970687,26.1644219 21.7080687,22.7284219 21.7080687,17.3204219 C21.7080687,11.8784219 24.7350687,8.13742187 29.1570687,8.13742187 C30.4150687,8.13742187 31.4020687,8.44342187 32.2520687,9.12442187 C32.1840687,8.75042187 32.1160687,7.55942187 32.1160687,6.53942187 L32.1160687,0.552421875 L36.6400687,1.26742187 Z" id="Fill-17" fill="#FFFFFF"></path>
                <path d="M39.0561688,8.57962188 L43.7161688,8.00162188 L46.2321688,15.8586219 C46.6061688,17.0146219 47.1171688,18.9196219 47.3551688,20.0416219 C47.4911688,19.0216219 47.8651688,17.3546219 48.4091688,15.6206219 L50.7561688,8.30762188 L55.5171688,8.30762188 L49.1581688,25.7216219 L45.3821688,25.7216219 L39.0561688,8.57962188 Z" id="Fill-19" fill="#FFFFFF"></path>
                <path d="M64.0868687,11.3344219 C62.9988687,11.3344219 62.1138687,12.0154219 61.7398687,13.1034219 C61.4338687,14.0214219 61.2638687,15.2464219 61.2638687,16.9804219 C61.2638687,18.9874219 61.4678687,20.4834219 61.8418687,21.3684219 C62.2498687,22.3204219 63.2708687,22.7964219 64.1548687,22.7964219 C66.1278687,22.7964219 66.9778687,21.0274219 66.9778687,16.9124219 C66.9778687,14.5654219 66.6718687,13.0354219 66.0598687,12.2524219 C65.6168687,11.6744219 64.9028687,11.3344219 64.0868687,11.3344219 M64.0188687,7.96742188 C66.5018687,7.96742188 68.4408687,8.81742188 69.9368687,10.5864219 C71.3308687,12.2184219 71.9428687,14.1234219 71.9428687,16.9464219 C71.9428687,19.9394219 71.2638687,21.9804219 69.7668687,23.6814219 C68.4408687,25.1774219 66.7058687,26.0954219 64.0188687,26.0954219 C59.2908687,26.0954219 56.1958687,22.5584219 56.1958687,17.0824219 C56.1958687,11.6064219 59.3248687,7.96742188 64.0188687,7.96742188" id="Fill-21" fill="#FFFFFF"></path>
                <path d="M87.0468688,9.80422187 L84.8358688,12.7972219 C83.9178688,11.9472219 82.9318688,11.4362219 82.0808688,11.4362219 C80.0398688,11.4362219 79.1218688,13.2052219 79.1218688,17.2862219 C79.1218688,19.5652219 79.3948688,20.9262219 80.0068688,21.6742219 C80.4828688,22.2862219 81.2648688,22.6602219 82.0468688,22.6602219 C83.1018688,22.6602219 84.0538688,22.2182219 85.1768688,21.2322219 L85.4478688,20.9942219 L87.5228688,23.7492219 C86.8428688,24.4292219 86.5358688,24.6672219 85.9238688,25.0412219 C84.6998688,25.7562219 83.3398688,26.1302219 81.6728688,26.1302219 C76.8768688,26.1302219 74.0888688,22.7972219 74.0888688,17.1512219 C74.0888688,13.1372219 75.6188688,10.4842219 77.6598688,9.09022187 C78.8168688,8.30722187 80.5168688,7.79722187 81.9798688,7.79722187 C83.1358688,7.79722187 84.3598688,8.10322187 85.3468688,8.57922187 C85.9918688,8.92022187 86.2988688,9.15822187 87.0468688,9.80422187" id="Fill-23" fill="#FFFFFF"></path>
                <path d="M97.8632687,18.1030219 L97.6592687,18.1030219 C94.4962687,18.1030219 93.4082687,18.6810219 93.4082687,20.7560219 C93.4082687,22.1160219 94.2592687,23.0350219 95.4152687,23.0350219 C96.2642687,23.0350219 97.1152687,22.5930219 97.7962687,21.8440219 L97.8632687,18.1030219 Z M88.9192687,10.3820219 C90.0412687,9.66802187 90.5172687,9.43002187 91.7412687,8.95402187 C93.4422687,8.24002187 94.9042687,7.93402187 96.5032687,7.93402187 C99.4272687,7.93402187 101.434269,9.02202187 102.115269,10.9600219 C102.353269,11.6750219 102.421269,12.2190219 102.421269,14.0900219 L102.319269,19.9390219 L102.319269,20.2460219 C102.319269,22.1160219 102.625269,22.8310219 103.952269,23.8170219 L101.537269,26.6060219 C100.482269,26.1640219 99.5302687,25.3810219 99.0882687,24.4970219 C98.4412687,25.1090219 98.3742687,25.1770219 98.0342687,25.4150219 C97.1832687,26.0280219 95.9592687,26.3680219 94.5302687,26.3680219 C90.6532687,26.3680219 88.5452687,24.3950219 88.5452687,20.9260219 C88.5452687,16.8450219 91.3672687,14.9400219 96.9112687,14.9400219 C97.2522687,14.9400219 97.4552687,14.9400219 97.9312687,14.9740219 L97.9312687,14.2600219 C97.9312687,12.3210219 97.5572687,11.6750219 95.8902687,11.6750219 C94.4282687,11.6750219 92.7272687,12.3890219 90.8572687,13.6470219 L88.9192687,10.3820219 Z" id="Fill-25" fill="#FFFFFF"></path>
                <path d="M118.612269,9.80422187 L116.402269,12.7972219 C115.483269,11.9472219 114.497269,11.4362219 113.646269,11.4362219 C111.606269,11.4362219 110.687269,13.2052219 110.687269,17.2862219 C110.687269,19.5652219 110.960269,20.9262219 111.572269,21.6742219 C112.049269,22.2862219 112.831269,22.6602219 113.613269,22.6602219 C114.667269,22.6602219 115.619269,22.2182219 116.742269,21.2322219 L117.013269,20.9942219 L119.089269,23.7492219 C118.408269,24.4292219 118.102269,24.6672219 117.490269,25.0412219 C116.265269,25.7562219 114.905269,26.1302219 113.238269,26.1302219 C108.443269,26.1302219 105.654269,22.7972219 105.654269,17.1512219 C105.654269,13.1372219 107.184269,10.4842219 109.225269,9.09022187 C110.382269,8.30722187 112.082269,7.79722187 113.545269,7.79722187 C114.701269,7.79722187 115.925269,8.10322187 116.912269,8.57922187 C117.558269,8.92022187 117.864269,9.15822187 118.612269,9.80422187" id="Fill-27" fill="#FFFFFF"></path>
                <g id="Group-31" transform="translate(118.855469, 7.340322)">
                    <mask id="mask-2" fill="white">
                        <use xlink:href="#path-1"></use>
                    </mask>
                    <g id="Clip-30"></g>
                    <path d="M0.2344,1.2734 L4.8934,0.7294 L7.9214,10.8644 C8.2264,11.9194 8.8384,14.4704 8.8384,14.4704 C8.8384,14.4704 9.1784,12.5314 9.3824,11.6814 C9.6554,10.5924 9.7234,10.4224 10.0634,9.2664 L12.6824,1.0014 L17.4784,1.0014 L11.1514,18.6534 C9.9614,22.0204 9.0774,23.4824 7.8184,24.4014 C6.6624,25.2524 5.1664,25.7954 3.6014,26.0004 L2.0374,23.0064 C3.0234,22.7344 4.1794,22.3264 4.8594,21.8504 C5.3704,21.4764 5.7784,21.0004 6.1524,20.4214 C6.5944,19.7084 6.7304,19.4014 7.1384,18.3814 L5.9824,18.3814 C5.7104,17.5654 5.5744,17.2254 5.2674,16.3404 C4.9274,15.2864 4.3834,13.5514 4.3494,13.4834 L0.2344,1.2734 Z" id="Fill-29" fill="#FFFFFF" mask="url(#mask-2)"></path>
                </g>
            </g>
        </g>
    </g>
</svg>